<svg width="100" height="22" viewBox="0 0 100 22" fill="none" xmlns="http://www.w3.org/2000/svg">
<g id="social icons">
<path id="Vector" d="M89.2828 5.3166C86.2409 5.3166 83.7874 7.8148 83.7874 10.912C83.7874 14.0092 86.2409 16.5074 89.2828 16.5074C92.3246 16.5074 94.7781 14.0092 94.7781 10.912C94.7781 7.8148 92.3246 5.3166 89.2828 5.3166ZM89.2828 14.5497C87.317 14.5497 85.71 12.9183 85.71 10.912C85.71 8.90563 87.3123 7.27425 89.2828 7.27425C91.2532 7.27425 92.8555 8.90563 92.8555 10.912C92.8555 12.9183 91.2485 14.5497 89.2828 14.5497ZM96.2847 5.08772C96.2847 5.81331 95.7108 6.39282 95.0029 6.39282C94.2903 6.39282 93.7211 5.80844 93.7211 5.08772C93.7211 4.36699 94.2951 3.78261 95.0029 3.78261C95.7108 3.78261 96.2847 4.36699 96.2847 5.08772ZM99.9244 6.4123C99.8431 4.66404 99.4509 3.11545 98.193 1.83956C96.9399 0.563678 95.419 0.164355 93.702 0.0766992C91.9324 -0.0255664 86.6283 -0.0255664 84.8587 0.0766992C83.1465 0.159486 81.6256 0.558809 80.3677 1.83469C79.1099 3.11058 78.7225 4.65917 78.6364 6.40743C78.5359 8.20925 78.5359 13.6098 78.6364 15.4117C78.7177 17.1599 79.1099 18.7085 80.3677 19.9844C81.6256 21.2603 83.1417 21.6596 84.8587 21.7473C86.6283 21.8495 91.9324 21.8495 93.702 21.7473C95.419 21.6645 96.9399 21.2652 98.193 19.9844C99.4461 18.7085 99.8383 17.1599 99.9244 15.4117C100.025 13.6098 100.025 8.21412 99.9244 6.4123ZM97.6382 17.345C97.2652 18.2995 96.543 19.0348 95.6008 19.4195C94.1898 19.9893 90.8419 19.8578 89.2828 19.8578C87.7236 19.8578 84.3709 19.9844 82.9647 19.4195C82.0273 19.0397 81.3051 18.3043 80.9273 17.345C80.3677 15.9084 80.4969 12.4995 80.4969 10.912C80.4969 9.32443 80.3725 5.91071 80.9273 4.47899C81.3004 3.52451 82.0225 2.78917 82.9647 2.40446C84.3757 1.83469 87.7236 1.96618 89.2828 1.96618C90.8419 1.96618 94.1946 1.83956 95.6008 2.40446C96.5382 2.7843 97.2604 3.51964 97.6382 4.47899C98.1978 5.91558 98.0687 9.32443 98.0687 10.912C98.0687 12.4995 98.1978 15.9133 97.6382 17.345Z" fill="white"/>
<path id="Vector_2" d="M56.0706 6.51356C56.086 6.73504 56.086 6.95656 56.086 7.17804C56.086 13.9334 51.0783 21.7172 41.9257 21.7172C39.106 21.7172 36.4866 20.8787 34.2832 19.4232C34.6838 19.4707 35.069 19.4865 35.4851 19.4865C37.8117 19.4865 39.9535 18.6797 41.6638 17.3033C39.4758 17.2558 37.6422 15.7845 37.0105 13.7594C37.3187 13.8069 37.6268 13.8385 37.9504 13.8385C38.3972 13.8385 38.8441 13.7752 39.2601 13.6645C36.9797 13.1898 35.2693 11.1332 35.2693 8.64935V8.58609C35.9318 8.96579 36.7023 9.20309 37.5189 9.2347C36.1784 8.31709 35.3001 6.75086 35.3001 4.97894C35.3001 4.02972 35.5466 3.15959 35.9781 2.40019C38.428 5.50103 42.1106 7.52604 46.24 7.74756C46.163 7.36787 46.1168 6.97239 46.1168 6.57687C46.1168 3.76076 48.3356 1.4668 51.0937 1.4668C52.5266 1.4668 53.8209 2.0838 54.73 3.0805C55.8548 2.85902 56.9334 2.43184 57.8887 1.84649C57.5189 3.03307 56.7331 4.02977 55.7008 4.66255C56.7023 4.55186 57.673 4.26702 58.5667 3.87155C57.8888 4.88403 57.0413 5.78577 56.0706 6.51356Z" fill="white"/>
<path id="Vector_3" d="M8.17421 3.65234H9.99996V0.154687C9.68557 0.107422 8.60224 0 7.34088 0C4.70831 0 2.90529 1.82188 2.90529 5.16914V8.25H0V12.1602H2.90529V22H6.46588V12.1602H9.25375L9.69693 8.25H6.46588V5.55586C6.46588 4.42578 6.7424 3.65234 8.17421 3.65234Z" fill="white"/>
</g>
</svg>
